<svg width="36" height="36" viewBox="0 0 36 36" fill="none" xmlns="http://www.w3.org/2000/svg">
<g clip-path="url(#clip0_62_752)">
<path d="M33.4063 16.1381L2.85862 16.1381C2.59089 16.134 2.32508 16.1838 2.07693 16.2844C1.82879 16.385 1.60336 16.5343 1.41402 16.7237C1.13258 17.0052 0.941569 17.3644 0.865431 17.7552C0.789293 18.1459 0.831494 18.5505 0.986633 18.9172C1.14177 19.2838 1.40279 19.5958 1.73628 19.8132C2.06977 20.0307 2.46056 20.1436 2.85862 20.1377L33.4063 20.1377C33.6724 20.1431 33.9368 20.0954 34.1842 19.9973C34.4315 19.8992 34.6568 19.7528 34.8469 19.5666C35.0369 19.3803 35.1879 19.158 35.291 18.9127C35.3941 18.6674 35.4472 18.404 35.4472 18.1379C35.4472 17.8718 35.3941 17.6084 35.291 17.3631C35.1879 17.1178 35.0369 16.8955 34.8469 16.7092C34.6568 16.523 34.4315 16.3766 34.1842 16.2785C33.9368 16.1804 33.6724 16.1327 33.4063 16.1381Z" fill="black"/>
<path d="M33.4063 4.13812L2.85862 4.1381C2.59089 4.13404 2.32508 4.18379 2.07693 4.28437C1.82879 4.38496 1.60336 4.53434 1.41402 4.72367C1.13258 5.00524 0.941569 5.3644 0.865431 5.75516C0.789293 6.14592 0.831494 6.55051 0.986633 6.91715C1.14177 7.28379 1.40279 7.59579 1.73628 7.81322C2.06977 8.03066 2.46056 8.14362 2.85862 8.13767L33.4063 8.13769C33.6724 8.1431 33.9368 8.09537 34.1842 7.99731C34.4315 7.89924 34.6568 7.7528 34.8469 7.56657C35.0369 7.38033 35.1879 7.15805 35.291 6.91273C35.3941 6.66741 35.4472 6.404 35.4472 6.1379C35.4472 5.87181 35.3941 5.60839 35.291 5.36308C35.1879 5.11776 35.0369 4.89547 34.8469 4.70924C34.6568 4.52301 34.4315 4.37657 34.1842 4.2785C33.9368 4.18043 33.6724 4.13271 33.4063 4.13812Z" fill="black"/>
<path d="M33.4063 28.1381L2.85862 28.1381C2.59089 28.134 2.32508 28.1838 2.07693 28.2844C1.82879 28.385 1.60336 28.5343 1.41402 28.7237C1.13258 29.0052 0.941569 29.3644 0.865431 29.7552C0.789293 30.1459 0.831494 30.5505 0.986633 30.9172C1.14177 31.2838 1.40279 31.5958 1.73628 31.8132C2.06977 32.0307 2.46056 32.1436 2.85862 32.1377L33.4063 32.1377C33.6724 32.1431 33.9368 32.0954 34.1842 31.9973C34.4315 31.8992 34.6568 31.7528 34.8469 31.5666C35.0369 31.3803 35.1879 31.158 35.291 30.9127C35.3941 30.6674 35.4472 30.404 35.4472 30.1379C35.4472 29.8718 35.3941 29.6084 35.291 29.3631C35.1879 29.1178 35.0369 28.8955 34.8469 28.7092C34.6568 28.523 34.4315 28.3766 34.1842 28.2785C33.9368 28.1804 33.6724 28.1327 33.4063 28.1381Z" fill="black"/>
</g>
<defs>
<clipPath id="clip0_62_752">
<rect width="36" height="36" fill="white"/>
</clipPath>
</defs>
</svg>
