<svg width="36" height="36" viewBox="0 0 36 36" fill="none" xmlns="http://www.w3.org/2000/svg">
<path d="M32.1574 2.0005C31.6818 2.01173 31.23 2.21079 30.9007 2.55416L17.9996 15.4553L5.09843 2.55416C4.93065 2.38122 4.72985 2.24372 4.50794 2.14982C4.28602 2.05593 4.04752 2.00754 3.80656 2.00753C3.44829 2.00762 3.0982 2.11461 2.8011 2.31482C2.50399 2.51502 2.27339 2.79934 2.1388 3.13136C2.00422 3.46339 1.97178 3.82802 2.04563 4.17859C2.11948 4.52917 2.29626 4.84973 2.55336 5.09924L15.4545 18.0004L2.55336 30.9016C2.38062 31.0674 2.24272 31.2661 2.14772 31.4859C2.05272 31.7057 2.00253 31.9422 2.00009 32.1817C1.99766 32.4211 2.04303 32.6587 2.13354 32.8804C2.22405 33.1021 2.35789 33.3035 2.52721 33.4728C2.69654 33.6421 2.89794 33.776 3.11964 33.8665C3.34134 33.957 3.57887 34.0023 3.81832 33.9999C4.05776 33.9975 4.29432 33.9473 4.51413 33.8523C4.73394 33.7573 4.93259 33.6194 5.09843 33.4466L17.9996 20.5455L30.9007 33.4466C31.0666 33.6194 31.2652 33.7573 31.485 33.8523C31.7048 33.9473 31.9414 33.9975 32.1808 33.9999C32.4203 34.0023 32.6578 33.957 32.8795 33.8665C33.1012 33.776 33.3026 33.6421 33.472 33.4728C33.6413 33.3035 33.7751 33.1021 33.8656 32.8804C33.9561 32.6587 34.0015 32.4211 33.9991 32.1817C33.9966 31.9422 33.9464 31.7057 33.8514 31.4859C33.7564 31.2661 33.6185 31.0674 33.4458 30.9016L20.5447 18.0004L33.4458 5.09924C33.7077 4.84811 33.8876 4.52368 33.9619 4.16851C34.0362 3.81335 34.0014 3.44402 33.8621 3.10897C33.7228 2.77393 33.4855 2.4888 33.1813 2.29099C32.8771 2.09318 32.5202 1.99193 32.1574 2.0005Z" fill="black"/>
</svg>
