<svg width="34" height="33" viewBox="0 0 34 33" fill="none" xmlns="http://www.w3.org/2000/svg">
<path d="M16.0748 1.94919C16.4141 1.12181 17.5859 1.12181 17.9252 1.94919L21.4844 10.6272C21.628 10.9774 21.9571 11.2165 22.3346 11.2449L31.6877 11.9482C32.5794 12.0153 32.9415 13.1297 32.2595 13.7081L25.1061 19.7747C24.8174 20.0195 24.6917 20.4064 24.7813 20.7742L27.0027 29.8868C27.2145 30.7557 26.2665 31.4444 25.5057 30.9745L17.5255 26.0459C17.2034 25.847 16.7966 25.847 16.4745 26.0459L8.49432 30.9745C7.73346 31.4444 6.78551 30.7557 6.9973 29.8868L9.21865 20.7742C9.3083 20.4064 9.1826 20.0195 8.8939 19.7747L1.7405 13.7081C1.05848 13.1297 1.42056 12.0153 2.31231 11.9482L11.6654 11.2449C12.0429 11.2165 12.372 10.9774 12.5156 10.6272L16.0748 1.94919Z" fill="#FFD700" stroke="#FFD700" stroke-width="2"/>
</svg>
